# xmcd
#
# Track frame offsets: 
#        150
#        30283
#        46954
#        108458
#        125219
#        145009
#        162997
#        183107
#
# Disc length: 2794 seconds
#
# Revision: 8
# Processed by: cddbd v1.5.2PL0 Copyright (c) Steve Scherf et al.
# Submitted via: ExactAudioCopyFreeDBPlugin 1.0
#
DISCID=640ae808
DTITLE=Jimi Hendrix - Live At Woodstock - Disc Two
DYEAR=2010
DGENRE=Rock
TTITLE0=Izabella
TTITLE1=Fire
TTITLE2=Voodoo Child (Slight Return)
TTITLE3=Star Spangled Banner
TTITLE4=Purple Haze
TTITLE5=Woodstock Improvisation
TTITLE6=Villanova Junction
TTITLE7=Hey Joe
EXTD=Year: 1999 [CD 2 from 2)
EXTT0=
EXTT1=
EXTT2=
EXTT3=
EXTT4=
EXTT5=
EXTT6=
EXTT7=
PLAYORDER=
